{"title":"Vikings S02E02 HDTV x264 AAC E-Subs [GWC].mp4","uid":9718696,"size":146781943,"categoryP":"video","categoryS":"tv_shows","magnet":"?xt=urn:btih:7b36bc62828dd77911de07a129838b8ab62b460e&amp;dn=Vikings+S02E02+HDTV+x264+AAC+E-Subs+%5BGWC%5D.mp4&amp;tr=udp%3A%2F%2Ftracker.openbittorrent.com%3A80&amp;tr=udp%3A%2F%2Fopen.demonii.com%3A1337&amp;tr=udp%3A%2F%2Ftracker.coppersurfer.tk%3A6969&amp;tr=udp%3A%2F%2Fexodus.desync.com%3A6969","seeders":1,"leechers":0,"uploader":"canc232","files":1,"time":1394187487,"description":"Vikings S02E02 HDTV x264 AAC E-Subs [GWC]\n\n\nStoryline :\nVikings follows the adventures of Ragnar Lothbrok: the greatest hero of his age. The series tells the saga of Ragnar's band of Viking brothers and his family as he rises to become King of the Viking tribes. As well as being a fearless warrior, Ragnar embodies the Norse traditions of devotion to the gods: legend has it that he was a direct descendant of Odin, the god of war and warriors.\n\n\nSCREENS : &lt;a href=&quot;\nhttp://i.imgur.com/5UVfbIt.jpg&quot; rel=&quot;nofollow&quot; target=&quot;_NEW&quot;&gt;\nhttp://i.imgur.com/5UVfbIt.jpg&lt;/a&gt; &lt;a href=&quot;\nhttp://i.imgur.com/c0LDpql.jpg&quot; rel=&quot;nofollow&quot; target=&quot;_NEW&quot;&gt;\nhttp://i.imgur.com/c0LDpql.jpg&lt;/a&gt; &lt;a href=&quot;\nhttp://i.imgur.com/HBIEVWP.jpg&quot; rel=&quot;nofollow&quot; target=&quot;_NEW&quot;&gt;\nhttp://i.imgur.com/HBIEVWP.jpg&lt;/a&gt;\n\n\nMEDIA INFO :\nGeneral \nFormat : MPEG-4 \nFormat profile : Base Media \nFile size : 140 MiB \nDuration : 43mn 58s \nOverall bit rate mode : Variable \nOverall bit rate : 445 Kbps \n\nVideo \nFormat : AVC \nFormat profile : &lt;a class=&quot;__cf_email__&quot; href=&quot;/cdn-cgi/l/email-protection&quot; data-cfemail=&quot;5119383639111d627f61&quot;&gt;[email&amp;#160;protected]&lt;/a&gt;&lt;script cf-hash='f9e31' type=&quot;text/javascript&quot;&gt;\n/* &lt;![CDATA[ */!function(){try{var t=&quot;currentScript&quot;in document?document.currentScript:function(){for(var t=document.getElementsByTagName(&quot;script&quot;),e=t.length;e--;)if(t[e].getAttribute(&quot;cf-hash&quot;))return t[e]}();if(t&amp;&amp;t.previousSibling){var e,r,n,i,c=t.previousSibling,a=c.getAttribute(&quot;data-cfemail&quot;);if(a){for(e=&quot;&quot;,r=parseInt(a.substr(0,2),16),n=2;a.length-n;n+=2)i=parseInt(a.substr(n,2),16)^r,e+=String.fromCharCode(i);e=document.createTextNode(e),c.parentNode.replaceChild(e,c)}}}catch(u){}}();/* ]]&gt; */&lt;/script&gt; \nFormat settings, CABAC : Yes \nFormat settings, ReFrames : 4 frames \nDuration : 43mn 58s \nBit rate : 382 Kbps \nMaximum bit rate : 1 899 Kbps \nWidth : 720 pixels \nHeight : 408 pixels \nDisplay aspect ratio : 16:9 \nFrame rate : 23.976 fps \nStream size : 120 MiB (86%) \nTitle : Vikings S02E02 HDTV x264 AAC E-Subs [GWC] \nWriting library : x264 core \n\nAudio \nFormat : AAC \nFormat profile : HE-AAC / LC \nDuration : 43mn 58s \nBit rate mode : Variable \nChannel(s) : 2 channels \nSampling rate : 48.0 KHz / 24.0 KHz \nStream size : 18.9 MiB (13%)  \nLanguage : English \n\nText \nFormat : Timed Text \nDuration : 43mn 34s \nTitle : English Subtitle by Eldefel \nLanguage : English \n","torrent":{"xt":"urn:btih:7b36bc62828dd77911de07a129838b8ab62b460e","amp;dn":"Vikings+S02E02+HDTV+x264+AAC+E-Subs+%5BGWC%5D.mp4","amp;tr":["udp%3A%2F%2Ftracker.openbittorrent.com%3A80","udp%3A%2F%2Fopen.demonii.com%3A1337","udp%3A%2F%2Ftracker.coppersurfer.tk%3A6969","udp%3A%2F%2Fexodus.desync.com%3A6969"],"infoHash":"7b36bc62828dd77911de07a129838b8ab62b460e","infoHashBuffer":{"type":"Buffer","data":[123,54,188,98,130,141,215,121,17,222,7,161,41,131,139,138,182,43,70,14]},"announce":[],"urlList":[]}}